<?xml version="1.0" standalone="no"?>
<!DOCTYPE svg PUBLIC "-//W3C//DTD SVG 20010904//EN"
 "http://www.w3.org/TR/2001/REC-SVG-20010904/DTD/svg10.dtd">
<svg version="1.0" xmlns="http://www.w3.org/2000/svg"
 width="1397.000000pt" height="1397.000000pt" viewBox="0 0 1397.000000 1397.000000"
 preserveAspectRatio="xMidYMid meet">
<metadata>
Created by potrace 1.14, written by Peter Selinger 2001-2017
</metadata>
<g transform="translate(0.000000,1397.000000) scale(0.100000,-0.100000)"
fill="#000000" stroke="none">
<path d="M3659 10356 c-2 -2 -53 -7 -114 -11 -60 -3 -117 -8 -125 -10 -8 -2
-42 -6 -75 -10 -33 -3 -71 -8 -85 -10 -14 -2 -45 -7 -70 -10 -129 -18 -358
-71 -515 -118 -402 -122 -775 -338 -1040 -602 -135 -135 -275 -336 -360 -519
-119 -253 -178 -534 -177 -836 1 -115 3 -148 18 -282 25 -227 121 -483 257
-685 287 -427 781 -707 1662 -943 44 -12 87 -23 95 -25 8 -2 74 -18 145 -35
72 -17 166 -39 210 -50 44 -10 127 -30 185 -44 58 -14 116 -27 130 -29 14 -3
72 -17 130 -32 58 -15 112 -28 120 -30 39 -9 293 -87 360 -110 435 -154 644
-371 634 -660 -1 -44 -5 -89 -7 -100 -3 -11 -8 -33 -12 -50 -10 -41 -61 -143
-92 -183 -161 -212 -478 -337 -938 -369 -177 -13 -558 -6 -651 11 -10 2 -44 7
-74 10 -30 4 -68 9 -85 12 -16 2 -57 9 -90 15 -539 91 -1130 324 -1533 605
-35 24 -64 44 -66 44 -2 0 -16 -28 -31 -62 -15 -35 -41 -92 -57 -128 -17 -36
-108 -238 -203 -450 -95 -212 -190 -420 -210 -464 -20 -43 -33 -82 -28 -86 4
-4 40 -30 78 -57 297 -209 724 -398 1185 -524 122 -34 418 -100 503 -113 63
-10 109 -17 129 -21 11 -3 46 -7 77 -11 31 -3 65 -8 76 -10 23 -4 187 -21 290
-29 251 -20 626 -20 845 0 144 13 180 17 305 36 143 21 142 20 270 48 875 184
1506 660 1765 1330 29 74 78 254 86 310 3 25 8 49 10 52 25 43 26 516 1 644
-3 11 -7 36 -11 55 -6 34 -12 63 -20 98 -44 184 -162 423 -285 577 -197 246
-526 469 -926 627 -126 50 -420 150 -478 162 -12 3 -83 22 -157 42 -74 19
-142 37 -150 39 -8 2 -82 19 -165 39 -82 20 -170 41 -195 46 -68 15 -279 65
-425 100 -147 35 -400 106 -430 120 -11 5 -54 21 -95 35 -299 105 -492 259
-561 451 -32 86 -32 250 0 354 88 292 353 474 797 550 158 27 255 34 474 34
168 -1 251 -5 365 -19 22 -3 58 -8 80 -10 22 -3 51 -7 65 -10 14 -2 41 -7 60
-10 45 -7 210 -43 278 -61 123 -33 163 -45 272 -82 193 -65 325 -122 546 -232
l211 -105 36 90 c35 88 172 426 349 860 49 121 91 226 91 234 2 17 -103 81
-248 153 -55 27 -107 53 -116 58 -13 7 -94 41 -204 85 -27 11 -17 7 -205 71
-200 68 -376 113 -600 155 -140 26 -139 26 -345 54 -16 2 -66 7 -110 10 -44 4
-91 9 -105 12 -29 6 -715 15 -721 9z"/>
<path d="M7689 10218 c0 -30 0 -6739 0 -6755 1 -10 165 -13 786 -13 l785 0 0
935 0 935 798 1 c438 1 815 2 837 4 22 2 81 6 130 9 50 3 101 8 115 11 14 2
46 7 73 10 109 12 148 18 267 41 266 52 521 132 735 230 33 15 62 28 65 29 6
1 77 38 128 67 340 188 611 437 812 743 88 135 224 430 255 555 3 8 13 49 24
90 11 42 26 109 34 150 15 74 19 99 36 250 11 94 10 470 -1 553 -9 68 -17 123
-24 177 -17 113 -78 338 -125 459 -146 373 -371 673 -705 939 -139 111 -413
265 -609 342 -60 23 -119 47 -130 51 -29 12 -174 58 -199 63 -12 3 -56 14 -99
25 -86 22 -205 48 -264 56 -21 3 -60 10 -88 15 -62 11 -121 19 -205 26 -36 3
-78 8 -95 11 -16 4 -774 8 -1682 10 l-1653 4 -1 -23z m3126 -1271 c129 -16
163 -22 255 -43 477 -108 783 -387 881 -804 33 -136 45 -389 25 -505 -2 -16
-7 -48 -11 -70 -11 -77 -57 -221 -96 -301 -140 -282 -409 -476 -779 -563 -85
-20 -107 -24 -190 -36 -25 -4 -58 -9 -75 -12 -16 -3 -375 -7 -797 -10 l-768
-4 0 1179 0 1180 753 -3 c413 -1 775 -5 802 -8z"/>
</g>
</svg>
