<?xml version="1.0" standalone="no"?>
<!DOCTYPE svg PUBLIC "-//W3C//DTD SVG 20010904//EN"
 "http://www.w3.org/TR/2001/REC-SVG-20010904/DTD/svg10.dtd">
<svg version="1.0" xmlns="http://www.w3.org/2000/svg"
 width="700.000000pt" height="700.000000pt" viewBox="0 0 700.000000 700.000000"
 preserveAspectRatio="xMidYMid meet">
<metadata>
Created by potrace 1.14, written by Peter Selinger 2001-2017
</metadata>
<g transform="translate(0.000000,700.000000) scale(0.100000,-0.100000)"
fill="#000000" stroke="none">
<path d="M3120 6979 c-25 -3 -70 -9 -100 -13 -30 -3 -77 -11 -105 -16 -27 -5
-61 -12 -75 -14 -296 -54 -610 -160 -897 -304 -217 -108 -366 -201 -571 -355
-102 -77 -141 -118 -144 -150 0 -12 -2 -29 -3 -37 -1 -8 4 -30 12 -49 16 -41
1587 -1615 1627 -1631 47 -18 86 -11 169 29 45 21 112 49 149 61 78 26 114 57
127 109 5 20 8 517 8 1158 -2 1116 -2 1122 -23 1149 -44 60 -90 76 -174 63z"/>
<path d="M3762 6969 c-21 -11 -47 -34 -57 -51 -20 -32 -20 -58 -21 -1161 0
-851 3 -1136 12 -1162 16 -48 46 -69 139 -101 44 -15 109 -42 144 -60 72 -38
126 -44 169 -17 35 22 1596 1581 1610 1609 32 61 19 125 -36 176 -55 50 -238
185 -331 243 -156 97 -365 209 -501 268 -51 22 -238 93 -285 107 -22 7 -56 18
-75 25 -67 24 -308 83 -407 99 -50 9 -247 36 -286 40 -23 2 -52 -4 -75 -15z"/>
<path d="M848 5761 c-18 -9 -64 -54 -101 -101 -64 -79 -257 -361 -257 -374 0
-4 -12 -25 -27 -49 -38 -61 -155 -297 -198 -402 -68 -165 -133 -365 -170 -525
-11 -45 -44 -221 -50 -260 -3 -25 -8 -52 -10 -60 -6 -25 -18 -143 -18 -178 1
-38 37 -96 73 -114 20 -10 262 -13 1150 -14 677 -1 1137 1 1156 7 46 14 81 57
104 128 12 35 39 101 61 147 42 91 47 129 24 177 -16 33 -1560 1581 -1606
1611 -37 24 -92 27 -131 7z"/>
<path d="M6034 5762 c-41 -21 -1611 -1594 -1624 -1626 -17 -47 -11 -83 29
-168 21 -46 48 -112 60 -148 26 -75 35 -89 76 -116 28 -18 62 -19 1160 -21
1101 -1 1131 -1 1172 19 45 21 85 83 78 120 -3 12 -7 53 -10 92 -4 39 -10 89
-15 111 -5 22 -11 60 -15 85 -11 78 -44 222 -76 330 -17 58 -34 119 -38 135
-23 86 -115 313 -189 465 -129 264 -392 660 -475 715 -33 21 -98 25 -133 7z"/>
<path d="M115 3312 c-30 -6 -84 -62 -94 -97 -7 -27 4 -140 34 -335 21 -139
143 -567 190 -667 8 -17 15 -34 15 -37 0 -16 127 -277 186 -382 105 -189 270
-429 357 -522 39 -41 88 -55 142 -41 34 10 148 119 837 808 438 438 802 809
807 824 19 48 12 84 -30 174 -23 49 -50 115 -60 148 -22 68 -32 84 -74 111
-28 18 -61 19 -1160 19 -621 1 -1139 -1 -1150 -3z"/>
<path d="M4590 3303 c-44 -18 -66 -48 -90 -121 -11 -34 -38 -101 -60 -149 -41
-89 -47 -123 -30 -169 11 -28 1579 -1602 1616 -1622 80 -43 142 -15 231 103
13 17 37 48 54 70 58 75 176 259 243 378 216 386 360 822 418 1262 20 158 13
193 -49 235 l-37 25 -1132 1 c-913 0 -1139 -2 -1164 -13z"/>
<path d="M2850 2583 c-14 -9 -379 -371 -812 -804 -512 -510 -793 -799 -802
-821 -17 -41 -12 -93 13 -128 10 -14 60 -58 112 -98 52 -40 102 -80 112 -88 9
-8 20 -14 23 -14 5 0 93 -59 104 -70 3 -3 17 -12 32 -20 15 -8 64 -37 109 -64
81 -47 330 -176 342 -176 4 0 30 -11 59 -24 202 -91 556 -194 798 -231 261
-40 299 -37 350 28 l25 31 1 1136 c1 624 -3 1146 -8 1160 -15 46 -55 77 -124
100 -37 11 -105 39 -150 61 -92 43 -144 49 -184 22z"/>
<path d="M3986 2570 c-31 -17 -97 -44 -144 -61 -98 -34 -110 -42 -138 -84 -18
-28 -19 -62 -20 -1160 -2 -1084 -1 -1132 17 -1170 33 -71 89 -89 221 -70 342
48 637 126 915 241 119 49 314 145 395 194 37 22 70 40 73 40 3 0 11 5 18 10
7 6 66 46 132 90 142 94 278 200 300 234 23 35 25 89 5 133 -21 44 -1567 1592
-1615 1617 -45 24 -94 19 -159 -14z"/>
</g>
</svg>
